# xmcd CD database file
# Copyright (C) 1993-1998 Ti Kan
#
# Track frame offsets:
#	150
#	16630
#	32972
#	45395
#	60317
#	72025
#	89032
#	113857
#	129667
#	145577
#	159697
#	177222
#	190610
#	214782
#	232977
#	249220
#	268920
#
# Disc length: 3775 seconds
#
# Revision: 1
# Processed by: cddbd v1.4b41PL1 Copyright (c) Steve Scherf et al.
# Submitted via: CDValet v3.30 - Copyright (c) 1997 Greg Leichner
#
DISCID=e10ebd11
DTITLE=Diversen - That's Country - CD 2 of 2
DYEAR=1900
DGENRE=
TTITLE0=Gram Parsons&Emmylou Harris/Love Hurts
TTITLE1=Flying Burrito Bros/Hot Burrito #1
TTITLE2=Johnny Cash/Folsom Prison Blues
TTITLE3=The Everly Brothers/Stories We Could Tell
TTITLE4=The Nothing Hillbillies/Bewildered
TTITLE5=John Denver/Calypso
TTITLE6=Guy Clark/The Randall Knife
TTITLE7=Willie Nelson/Always On My Mind
TTITLE8=The Byrds/Hickory Wind
TTITLE9=Elvis Costello&The Attractions/Good Year For The Roses
TTITLE10=Emmylou Harris/Together Again
TTITLE11=Kenny Rogers/Ruby, Don't Take Your Love To Town
TTITLE12=Glenn Frey/Lyin Eyes, Take It Easy (medley)
TTITLE13=The Ozark Mountain Daredevils/Leatherwood
TTITLE14=Charlie Daniels Band/The Devil Went Down To Georgia
TTITLE15=Gram Parsons/Return Of The Grievous Angel
TTITLE16=Dillard&Clark/She Darked The Sun
EXTD=Gekocht door Gitta 27-06-1998
EXTT0=
EXTT1=
EXTT2=
EXTT3=
EXTT4=
EXTT5=
EXTT6=
EXTT7=
EXTT8=
EXTT9=
EXTT10=
EXTT11=
EXTT12=
EXTT13=
EXTT14=
EXTT15=
EXTT16=
PLAYORDER=
